<mxfile modified="2019-10-28T09:57:51.216Z" host="www.draw.io" agent="Mozilla/5.0 (Windows NT 10.0; Win64; x64) AppleWebKit/537.36 (KHTML, like Gecko) Chrome/77.0.3865.120 Safari/537.36" etag="ZLzbfFIpQorqPTRbiJUt" version="12.1.7" type="github" pages="1">
  <diagram name="Page-1" id="97a40813-6b03-0c74-37c1-0168de264b11">
    <mxGraphModel dx="700" dy="576" grid="1" gridSize="10" guides="1" tooltips="1" connect="1" arrows="1" fold="1" page="1" pageScale="1" pageWidth="500" pageHeight="300" background="#ffffff" math="0" shadow="0">
      <root>
        <mxCell id="0"/>
        <mxCell id="1" parent="0"/>
        <mxCell id="hd_bTPAefd2k4NGTyIAn-1" value="HTML" style="html=1;fontSize=14;fontColor=#004C99;align=left;strokeColor=none;fillColor=none;gradientColor=none;" vertex="1" parent="1">
          <mxGeometry x="80" y="70" width="50" height="20" as="geometry"/>
        </mxCell>
        <mxCell id="hd_bTPAefd2k4NGTyIAn-2" value="WebComponents" style="html=1;fontSize=14;fontColor=#004C99;align=left;strokeColor=none;fillColor=none;gradientColor=none;" vertex="1" parent="1">
          <mxGeometry x="358" y="88" width="120" height="20" as="geometry"/>
        </mxCell>
        <mxCell id="hd_bTPAefd2k4NGTyIAn-3" value="JavaScript" style="html=1;fontSize=14;fontColor=#004C99;align=left;strokeColor=none;fillColor=none;gradientColor=none;" vertex="1" parent="1">
          <mxGeometry x="80" y="105" width="80" height="20" as="geometry"/>
        </mxCell>
        <mxCell id="hd_bTPAefd2k4NGTyIAn-4" value="CSS" style="html=1;fontSize=14;fontColor=#004C99;align=left;strokeColor=none;fillColor=none;gradientColor=none;" vertex="1" parent="1">
          <mxGeometry x="80" y="143" width="40" height="20" as="geometry"/>
        </mxCell>
        <mxCell id="hd_bTPAefd2k4NGTyIAn-5" value="Markdown" style="html=1;fontSize=14;fontColor=#004C99;align=left;strokeColor=none;fillColor=none;gradientColor=none;" vertex="1" parent="1">
          <mxGeometry x="80" y="185.5" width="80" height="20" as="geometry"/>
        </mxCell>
        <mxCell id="hd_bTPAefd2k4NGTyIAn-6" value="Modules" style="html=1;fontSize=14;fontColor=#004C99;align=left;strokeColor=none;fillColor=none;gradientColor=none;" vertex="1" parent="1">
          <mxGeometry x="358" y="128" width="70" height="20" as="geometry"/>
        </mxCell>
        <mxCell id="hd_bTPAefd2k4NGTyIAn-7" style="edgeStyle=none;orthogonalLoop=1;jettySize=auto;html=1;shadow=0;endArrow=none;strokeColor=#CCCCCC;strokeWidth=1;fontSize=14;fontColor=#004C99;" edge="1" parent="1" source="hd_bTPAefd2k4NGTyIAn-13" target="hd_bTPAefd2k4NGTyIAn-5">
          <mxGeometry relative="1" as="geometry"/>
        </mxCell>
        <mxCell id="hd_bTPAefd2k4NGTyIAn-8" style="edgeStyle=none;orthogonalLoop=1;jettySize=auto;html=1;exitX=0;exitY=0.5;exitDx=0;exitDy=0;shadow=0;endArrow=none;strokeColor=#CCCCCC;strokeWidth=1;fontSize=14;fontColor=#004C99;" edge="1" parent="1" source="hd_bTPAefd2k4NGTyIAn-13" target="hd_bTPAefd2k4NGTyIAn-4">
          <mxGeometry relative="1" as="geometry"/>
        </mxCell>
        <mxCell id="hd_bTPAefd2k4NGTyIAn-9" style="edgeStyle=none;orthogonalLoop=1;jettySize=auto;html=1;shadow=0;endArrow=none;strokeColor=#CCCCCC;strokeWidth=1;fontSize=14;fontColor=#004C99;" edge="1" parent="1" source="hd_bTPAefd2k4NGTyIAn-13" target="hd_bTPAefd2k4NGTyIAn-3">
          <mxGeometry relative="1" as="geometry"/>
        </mxCell>
        <mxCell id="hd_bTPAefd2k4NGTyIAn-10" style="edgeStyle=none;orthogonalLoop=1;jettySize=auto;html=1;shadow=0;endArrow=none;strokeColor=#CCCCCC;strokeWidth=1;fontSize=14;fontColor=#004C99;" edge="1" parent="1" source="hd_bTPAefd2k4NGTyIAn-13" target="hd_bTPAefd2k4NGTyIAn-1">
          <mxGeometry relative="1" as="geometry"/>
        </mxCell>
        <mxCell id="hd_bTPAefd2k4NGTyIAn-11" style="edgeStyle=none;orthogonalLoop=1;jettySize=auto;html=1;entryX=0;entryY=0.75;entryDx=0;entryDy=0;shadow=0;endArrow=none;strokeColor=#CCCCCC;strokeWidth=1;fontSize=14;fontColor=#004C99;" edge="1" parent="1" source="hd_bTPAefd2k4NGTyIAn-13" target="hd_bTPAefd2k4NGTyIAn-2">
          <mxGeometry relative="1" as="geometry"/>
        </mxCell>
        <mxCell id="hd_bTPAefd2k4NGTyIAn-12" style="edgeStyle=none;orthogonalLoop=1;jettySize=auto;html=1;shadow=0;endArrow=none;strokeColor=#CCCCCC;strokeWidth=1;fontSize=14;fontColor=#004C99;" edge="1" parent="1" source="hd_bTPAefd2k4NGTyIAn-13" target="hd_bTPAefd2k4NGTyIAn-6">
          <mxGeometry relative="1" as="geometry"/>
        </mxCell>
        <mxCell id="hd_bTPAefd2k4NGTyIAn-13" value="Materials" style="text;html=1;fontColor=#004C99;fontSize=20;fontStyle=1;verticalAlign=middle;" vertex="1" parent="1">
          <mxGeometry x="189" y="119.5" width="100" height="30" as="geometry"/>
        </mxCell>
      </root>
    </mxGraphModel>
  </diagram>
</mxfile>
